<svg width="403" height="403" viewBox="0 0 403 403" fill="none" xmlns="http://www.w3.org/2000/svg">
<path fill-rule="evenodd" clip-rule="evenodd" d="M201.5 0C257.142 0 307.517 22.5538 343.982 59.0184C380.446 95.4829 403 145.858 403 201.5C403 257.142 380.446 307.517 343.982 343.982C307.517 380.446 257.142 403 201.5 403C145.858 403 95.4829 380.446 59.0184 343.982C22.5538 307.517 0 257.142 0 201.5C0 145.858 22.5538 95.4829 59.0184 59.0184C95.4829 22.5538 145.858 0 201.5 0V0ZM201.611 73.4192C214.077 73.4192 224.183 83.5249 224.183 95.9908C224.183 108.457 214.077 118.562 201.611 118.562C189.146 118.562 179.04 108.457 179.04 95.9908C179.04 83.5249 189.146 73.4192 201.611 73.4192ZM201.5 201.5C133.942 200.715 99.8526 148.927 104.311 99.5653C108.2 56.5059 147.691 6.15205 227.495 11.9102C269.935 17.6749 307.953 37.351 336.801 66.199C371.427 100.825 392.844 148.661 392.844 201.5C392.844 254.339 371.427 302.175 336.801 336.801C309.954 363.648 275.165 382.552 236.26 389.691C330.117 352.031 320.667 201.739 201.5 201.5V201.5ZM201.611 278.589C214.077 278.589 224.183 288.695 224.183 301.161C224.183 313.627 214.077 323.732 201.611 323.732C189.146 323.732 179.04 313.627 179.04 301.161C179.04 288.695 189.146 278.589 201.611 278.589Z" fill="black"/>
</svg>
